<svg id="Layer_1" data-name="Layer 1" xmlns="http://www.w3.org/2000/svg" viewBox="0 0 841.89 595.28"><defs><style>.cls-1{fill:#1d1d1b;}.cls-1,.cls-2,.cls-3{stroke:#1d1d1b;}.cls-1,.cls-2,.cls-3,.cls-4,.cls-5,.cls-6{stroke-miterlimit:10;}.cls-1,.cls-3,.cls-4,.cls-5{stroke-width:2px;}.cls-2,.cls-3,.cls-4,.cls-6{fill:none;}.cls-2,.cls-6{stroke-width:4px;}.cls-4,.cls-5,.cls-6{stroke:#fff;}.cls-5{fill:#fff;}</style></defs><rect class="cls-1" x="483.3" y="-61.4" width="374.97" height="698.82"/><circle class="cls-2" cx="241.89" cy="206.29" r="103.01"/><circle class="cls-2" cx="239.89" cy="437.98" r="103.01"/><polyline class="cls-1" points="189.73 295.13 189.73 274.98 216.35 274.98 216.35 306.11"/><polyline class="cls-1" points="227.23 264.1 216.35 274.98 189.73 274.98 178.85 264.1"/><line class="cls-3" x1="178.85" y1="264.1" x2="226.51" y2="264.1"/><polyline class="cls-1" points="178.85 183.12 161.16 183.12 201.44 142.84 201.53 142.75 241.89 183.12 227.28 183.12"/><path class="cls-1" d="M227.28,195.07l-21.39,35.81h21.39V264.1H178.85v-81h48.43v11.95Z"/><path class="cls-3" d="M226.51,196.35c3.37.2,20.54.92,31.36-10.8,2.11-2.27,6.89-7.46,7.19-14.91a21.07,21.07,0,0,0-3.21-11.58c-11.19-18.94-42.75-13-48.83-29.41a16.69,16.69,0,0,1,.41-11.71c3.43-8.83,14.54-14.4,28.46-14.66"/><path class="cls-3" d="M227.28,230.88c1.24-17.11,9-24.58,23-27.27s20.84,10.88,39.55-4.81,20-15.86,39.39-11.76,6.9-22.42,6.9-22.42"/><line class="cls-4" x1="634.63" y1="274.31" x2="634.63" y2="306.11"/><line class="cls-4" x1="608.01" y1="295.13" x2="608.01" y2="274.31"/><line class="cls-4" x1="608.15" y1="275.12" x2="597.13" y2="264.1"/><line class="cls-4" x1="645.51" y1="264.1" x2="634.48" y2="275.13"/><line class="cls-3" x1="597.13" y1="264.1" x2="644.8" y2="264.1"/><path class="cls-5" d="M645.56,230.88H624.17l20.63-34.53c3.36.2,20.53.92,31.35-10.8,2.11-2.27,6.9-7.46,7.19-14.91a21,21,0,0,0-3.21-11.58c-11.18-18.94-42.75-13-48.83-29.41a16.69,16.69,0,0,1,.41-11.71c3.43-8.83,14.55-14.4,28.46-14.66H662A103.06,103.06,0,0,1,757.32,172l-2.91-7.33s12.52,26.52-6.91,22.42-20.67-3.92-39.39,11.76-25.66,2.14-39.54,4.81-21.76,10.16-23,27.27"/><path class="cls-6" d="M757.32,172a103,103,0,1,1-97.15-68.67H662"/><path class="cls-6" d="M662,103.29A103.06,103.06,0,0,1,757.32,172"/><polyline class="cls-4" points="598.13 183.12 579.44 183.12 619.72 142.84 619.81 142.75 660.17 183.12 644.56 183.12"/><path class="cls-4" d="M645.24,183.12h.32v11.95l-21.39,35.81h21.39V264.1h-.76"/><polyline class="cls-4" points="597.76 264.1 597.13 264.1 597.13 183.12 597.52 183.12"/><line class="cls-4" x1="642.11" y1="267.5" x2="645.51" y2="264.1"/><line class="cls-4" x1="598.83" y1="265.8" x2="597.13" y2="264.1"/><line class="cls-4" x1="756.64" y1="413.12" x2="756.63" y2="413.12"/><path class="cls-4" d="M756.64,413.12c.72-3.86-.62-9-1.89-12.69-.34-1-.67-1.85-1-2.57l-.15-.38-.15-.35q-.21-.51-.36-.84c-.07-.16-.12-.28-.17-.38a.46.46,0,0,0-.05-.1.34.34,0,0,0,0-.08"/><path class="cls-5" d="M681.82,401c0,.24,0,.49,0,.74-.29,7.45-5.08,12.63-7.18,14.91-10.83,11.72-28,11-31.36,10.8.33-.57.59-1,.76-1.28v-12h14.62l-40.37-40.37-.09.09L577.9,414.21h17.69v81h0l10.87,10.87v18.11l-2.12.76a103,103,0,0,1,38.51-189.36l1.37,1.29c-6.86,2.48-11.93,6.7-14.06,12.17a18.06,18.06,0,0,0-1.31,6.6,14.71,14.71,0,0,0,.9,5.11,14.09,14.09,0,0,0,3.39,5.2c9.17,9,30.39,8,41.81,19.5a24.2,24.2,0,0,1,3.64,4.71A21.3,21.3,0,0,1,681.82,401Z"/><path class="cls-6" d="M759,414.21A99.54,99.54,0,0,0,755.78,403a103.06,103.06,0,0,0-95.36-68.66h-1.78a103.83,103.83,0,0,0-15.78,1.2"/><line class="cls-4" x1="606.47" y1="506.06" x2="606.47" y2="505.39"/><line class="cls-4" x1="606.47" y1="526.22" x2="606.47" y2="524.17"/><line class="cls-4" x1="606.61" y1="506.2" x2="606.47" y2="506.06"/><path class="cls-5" d="M761.65,437.37A103.15,103.15,0,0,1,633.09,537.2V506.06L644,495.19l0-.06V462c1.25-17.11,9-24.58,23-27.27s20.83,10.87,39.55-4.81,20-15.86,39.38-11.76c7.12,1.5,9.95-1.1,10.68-5l2.39,1.09A103.35,103.35,0,0,1,761.65,437.37Z"/><line class="cls-4" x1="644.02" y1="414.21" x2="643.7" y2="414.21"/><polyline class="cls-4" points="643.26 427.44 640.11 432.7 639.32 434.03 636.26 439.16 635.33 440.72 631.45 447.2 630.6 448.63 622.63 461.97 644.02 461.97"/><polyline class="cls-4" points="643.02 414.21 643.7 414.21 644.02 414.21"/><polyline class="cls-4" points="595.59 414.21 595.99 414.21 596.6 414.21"/><line class="cls-4" x1="595.99" y1="414.21" x2="595.59" y2="414.21"/><line class="cls-4" x1="596.22" y1="495.19" x2="595.6" y2="495.19"/><polyline class="cls-4" points="643.26 427.44 640.11 432.7 639.32 434.03 636.26 439.16 635.33 440.72 631.45 447.2 630.6 448.63 622.63 461.97 644.02 461.97"/><path class="cls-4" d="M752.91,395.81s0-.05,0-.08a103.13,103.13,0,0,0-92.46-61.35l-1.78,0a45,45,0,0,0-14.41,2.5,45,45,0,0,1,14.41-2.5l1.78,0a103.13,103.13,0,0,1,92.46,61.35s0,0,0,.08l1.84,4.62,1,2.6c-.62-1.74-1.28-3.47-2-5.17l-.15-.38-.15-.35-.36-.84c-.07-.16-.12-.28-.17-.38a.47.47,0,0,0-.05-.1"/><line class="cls-4" x1="597.3" y1="496.89" x2="595.6" y2="495.19"/><path class="cls-6" d="M642.86,335.57a103,103,0,0,0-36.38,190.65h0a102.42,102.42,0,0,0,26.63,11h0A103.09,103.09,0,0,0,759,414.22"/></svg>