<svg id="Layer_1" data-name="Layer 1" xmlns="http://www.w3.org/2000/svg" viewBox="0 0 841.89 595.28"><defs><style>.cls-1{fill:#706f6f;stroke:#706f6f;}.cls-1,.cls-2,.cls-3,.cls-4,.cls-5,.cls-6,.cls-7,.cls-8{stroke-miterlimit:10;}.cls-1,.cls-3,.cls-4,.cls-5,.cls-6,.cls-8{stroke-width:2px;}.cls-2,.cls-3,.cls-5,.cls-7{fill:none;}.cls-2,.cls-3,.cls-4{stroke:#fff;}.cls-2,.cls-7{stroke-width:4px;}.cls-4{fill:#fff;}.cls-5,.cls-6,.cls-7,.cls-8{stroke:#1d1d1b;}.cls-6{fill:#1d1d1b;}.cls-8{fill:#878787;}</style></defs><rect class="cls-1" x="28.67" y="-26.22" width="374.97" height="657.72"/><rect class="cls-1" x="456.75" y="-26.22" width="374.97" height="663.64"/><path class="cls-2" d="M308.65,164.58A103,103,0,1,1,211.5,95.92h1.78"/><path class="cls-2" d="M213.28,95.93a103.07,103.07,0,0,1,95.37,68.65"/><line class="cls-3" x1="185.96" y1="266.94" x2="185.96" y2="298.75"/><line class="cls-3" x1="159.34" y1="287.77" x2="159.34" y2="266.94"/><line class="cls-3" x1="159.48" y1="267.75" x2="148.46" y2="256.74"/><line class="cls-3" x1="196.84" y1="256.74" x2="185.81" y2="267.77"/><polyline class="cls-3" points="149.46 175.76 130.77 175.76 171.05 135.48 171.14 135.39 211.5 175.76 195.89 175.76"/><path class="cls-3" d="M196.57,175.76h.32v12L175.5,223.52h21.39v33.22h-.76"/><polyline class="cls-3" points="149.09 256.74 148.46 256.74 148.46 175.76 148.85 175.76"/><path class="cls-4" d="M196.89,223.52H175.5L196.13,189c3.36.2,20.53.92,31.35-10.8,2.11-2.28,6.9-7.46,7.19-14.91a21.07,21.07,0,0,0-3.21-11.58c-11.19-18.94-42.75-13-48.83-29.41a16.69,16.69,0,0,1,.41-11.71c3.43-8.84,14.54-14.4,28.46-14.66h1.78a103.07,103.07,0,0,1,95.37,68.65l-2.91-7.32s12.51,26.52-6.91,22.42-20.67-3.92-39.39,11.76-25.66,2.14-39.54,4.81-21.76,10.16-23,27.27"/><line class="cls-5" x1="185.96" y1="505.4" x2="185.96" y2="537.2"/><line class="cls-5" x1="159.34" y1="526.22" x2="159.34" y2="505.4"/><line class="cls-5" x1="159.48" y1="506.21" x2="148.46" y2="495.19"/><line class="cls-5" x1="196.84" y1="495.19" x2="185.81" y2="506.22"/><polyline class="cls-5" points="149.46 414.21 130.77 414.21 171.05 373.94 171.14 373.85 211.5 414.21 195.89 414.21"/><path class="cls-5" d="M196.57,414.21h.32v12L175.5,462h21.39v33.22h-.76"/><polyline class="cls-5" points="149.09 495.19 148.46 495.19 148.46 414.21 148.85 414.21"/><path class="cls-6" d="M196.89,462H175.5l20.63-34.53c3.36.2,20.53.92,31.35-10.79,2.11-2.28,6.9-7.46,7.19-14.91a21.08,21.08,0,0,0-3.21-11.59c-11.19-18.93-42.75-13-48.83-29.4A16.71,16.71,0,0,1,183,349c3.43-8.83,14.54-14.4,28.46-14.66l1.78,0A103,103,0,0,1,308.65,403l-2.91-7.32s12.51,26.51-6.91,22.41-20.67-3.92-39.39,11.77-25.66,2.13-39.54,4.8-21.76,10.17-23,27.27"/><line class="cls-3" x1="193.44" y1="260.13" x2="196.84" y2="256.74"/><line class="cls-3" x1="150.16" y1="258.43" x2="148.46" y2="256.74"/><path class="cls-7" d="M308.77,403a103.06,103.06,0,0,0-95.36-68.65l-.13,0-1.78,0A102.9,102.9,0,1,0,308.65,403"/><line class="cls-5" x1="607.99" y1="497.44" x2="607.99" y2="529.24"/><line class="cls-5" x1="581.37" y1="518.26" x2="581.37" y2="497.44"/><line class="cls-5" x1="581.5" y1="498.24" x2="570.49" y2="487.23"/><line class="cls-5" x1="618.86" y1="487.23" x2="607.83" y2="498.26"/><polyline class="cls-5" points="571.49 406.25 552.79 406.25 593.07 365.97 593.16 365.88 633.53 406.25 617.91 406.25"/><path class="cls-5" d="M618.6,406.25h.32V418.2L597.53,454h21.39v33.22h-.77"/><polyline class="cls-8" points="571.12 487.23 570.49 487.23 570.49 406.25 570.88 406.25"/><path class="cls-5" d="M618.92,454H597.53l20.62-34.53c3.36.2,20.53.92,31.36-10.8,2.1-2.28,6.89-7.46,7.19-14.91a21.15,21.15,0,0,0-3.21-11.58c-11.19-18.94-42.75-13-48.83-29.41a16.65,16.65,0,0,1,.4-11.71c3.44-8.84,14.55-14.4,28.47-14.66h1.78a103.06,103.06,0,0,1,95.36,68.65l-2.91-7.32s12.52,26.52-6.91,22.42-20.67-3.92-39.38,11.76-25.67,2.14-39.55,4.81-21.76,10.16-23,27.27"/><path class="cls-7" d="M730.8,395.06a103,103,0,0,0-95.37-68.65h-1.9a102.92,102.92,0,1,0,97.14,68.66"/><circle class="cls-7" cx="633.53" cy="159.72" r="103.01"/><polyline class="cls-6" points="581.37 248.56 581.37 228.41 607.99 228.41 607.99 259.54"/><polyline class="cls-6" points="618.86 217.53 607.98 228.41 581.37 228.41 570.49 217.53"/><line class="cls-5" x1="570.49" y1="217.53" x2="618.15" y2="217.53"/><polyline class="cls-6" points="570.49 136.55 552.79 136.55 593.07 96.27 593.16 96.18 633.53 136.55 618.91 136.55"/><path class="cls-6" d="M618.92,148.5l-21.39,35.81h21.39v33.22H570.49v-81h48.43V148.5Z"/><path class="cls-5" d="M618.15,149.78c3.36.2,20.53.92,31.36-10.8,2.1-2.27,6.89-7.46,7.19-14.91a21.15,21.15,0,0,0-3.21-11.58c-11.19-18.94-42.75-13-48.83-29.41a16.65,16.65,0,0,1,.4-11.71c3.44-8.83,14.55-14.4,28.47-14.66"/><path class="cls-5" d="M618.92,184.31c1.24-17.11,9-24.58,23-27.27s20.83,10.88,39.55-4.81,20-15.86,39.38-11.76,6.91-22.42,6.91-22.42"/></svg>