<svg id="Layer_1" data-name="Layer 1" xmlns="http://www.w3.org/2000/svg" viewBox="0 0 841.89 595.28"><defs><style>.cls-1{fill:#1d1d1b;}.cls-2,.cls-4{fill:none;}.cls-2,.cls-3,.cls-4{stroke:#fff;stroke-miterlimit:10;}.cls-2,.cls-3{stroke-width:2px;}.cls-3,.cls-5{fill:#fff;}.cls-4{stroke-width:4px;}</style></defs><rect class="cls-1" x="9.03" y="68.65" width="823.83" height="435.04"/><line class="cls-2" x1="189.95" y1="333.94" x2="189.95" y2="365.74"/><line class="cls-2" x1="163.33" y1="354.76" x2="163.33" y2="333.94"/><line class="cls-2" x1="163.47" y1="334.75" x2="152.45" y2="323.73"/><line class="cls-2" x1="200.83" y1="323.73" x2="189.8" y2="334.76"/><path class="cls-3" d="M200.88,290.51H179.49L200.11,256c3.37.2,20.54.92,31.36-10.79,2.11-2.28,6.89-7.46,7.19-14.91a21.16,21.16,0,0,0-3.21-11.59c-11.19-18.93-42.75-13-48.83-29.4a16.67,16.67,0,0,1,.4-11.72c3.44-8.83,14.55-14.4,28.47-14.66l1.78,0a103,103,0,0,1,95.37,68.65l-2.92-7.32s12.52,26.51-6.9,22.41-20.68-3.92-39.39,11.76-25.66,2.14-39.55,4.81-21.76,10.17-23,27.27"/><path class="cls-4" d="M312.64,231.58a103,103,0,1,1-97.15-68.67l1.78,0"/><path class="cls-4" d="M217.27,162.93a103,103,0,0,1,95.37,68.65"/><polyline class="cls-2" points="153.45 242.75 134.76 242.75 175.03 202.47 175.12 202.38 215.49 242.75 199.88 242.75"/><path class="cls-2" d="M200.56,242.75h.32V254.7l-21.39,35.81h21.39v33.22h-.77"/><polyline class="cls-2" points="153.08 323.73 152.45 323.73 152.45 242.75 152.84 242.75"/><line class="cls-2" x1="197.43" y1="327.13" x2="200.83" y2="323.73"/><line class="cls-2" x1="154.15" y1="325.43" x2="152.45" y2="323.73"/><path class="cls-5" d="M441.78,259.07v36.29A38.6,38.6,0,0,1,428,304.82a48.88,48.88,0,0,1-18.8,3.43,42,42,0,0,1-14.66-2.54A39.57,39.57,0,0,1,382,298.14a34.37,34.37,0,0,1-9-13.48,53.15,53.15,0,0,1-3.3-19.44,49.87,49.87,0,0,1,3.25-18.5,36.9,36.9,0,0,1,8.8-13.48,38.36,38.36,0,0,1,12.83-8,43.57,43.57,0,0,1,15.66-2.78q17.51,0,29.68,9.58l-7.45,10.87A36.12,36.12,0,0,0,410.69,236q-11.35,0-18.33,7.45t-7,21.27q0,14.31,6.8,21.93t17.9,7.63q11,0,17.38-6.15v-17h-22V259.07Z"/><path class="cls-5" d="M498.28,222.42a44.32,44.32,0,0,1,15,2.54,41.58,41.58,0,0,1,12.94,7.51,34,34,0,0,1,9.28,13.3A49.77,49.77,0,0,1,539,264.86a54.1,54.1,0,0,1-2.25,16,37.31,37.31,0,0,1-6.14,12.3,38.8,38.8,0,0,1-9.17,8.45,39.58,39.58,0,0,1-11.05,5.14,43.79,43.79,0,0,1-12.06,1.66,42.62,42.62,0,0,1-14.95-2.66,41.51,41.51,0,0,1-13-7.81A35.58,35.58,0,0,1,461,284.19a50.79,50.79,0,0,1-3.49-19.33,51.46,51.46,0,0,1,2.3-15.78,37.12,37.12,0,0,1,6.21-12,37.76,37.76,0,0,1,9.16-8.21A38.66,38.66,0,0,1,486.23,224,47,47,0,0,1,498.28,222.42Zm0,13.6q-11,0-18,7.39t-7,21.51q0,14.13,7,22a22.81,22.81,0,0,0,17.79,7.86,23.54,23.54,0,0,0,18.14-7.8q7.15-7.8,7.16-22.11,0-14.07-7-21.45T498.28,236Zm-5.79-20.93H485l2.37-15.36h12.41Zm15.13,0h-7.56l7.68-15.36h12.65Z"/><path class="cls-5" d="M615.67,233.3l-44.33,60.53H618v12.76H553.37v-10l43.51-59.93H555.62V223.84h60Z"/></svg>