<svg id="Layer_1" data-name="Layer 1" xmlns="http://www.w3.org/2000/svg" viewBox="0 0 841.89 595.28"><defs><style>.cls-1{fill:#1d1d1b;}.cls-2,.cls-4{fill:none;}.cls-2,.cls-3,.cls-4{stroke:#fff;stroke-miterlimit:10;}.cls-2,.cls-3{stroke-width:2px;}.cls-3,.cls-5{fill:#fff;}.cls-4{stroke-width:4px;}</style></defs><rect class="cls-1" x="9.03" y="62.55" width="823.83" height="435.04"/><line class="cls-2" x1="320.39" y1="234.54" x2="320.38" y2="234.54"/><path class="cls-2" d="M320.39,234.54c.72-3.86-.62-9-1.89-12.69-.34-1-.67-1.85-1-2.57l-.15-.38-.15-.35q-.21-.51-.36-.84c-.07-.16-.12-.28-.17-.38a.46.46,0,0,0,0-.1.34.34,0,0,0,0-.08"/><path class="cls-3" d="M245.57,222.41c0,.24,0,.49,0,.74-.29,7.45-5.08,12.63-7.18,14.91-10.83,11.72-28,11-31.36,10.8.33-.57.59-1,.76-1.28v-12h14.62L182,195.26l-.09.09-40.28,40.28h17.69v81h0l10.87,10.87v18.11l-2.12.76A103,103,0,0,1,206.61,157l1.37,1.29c-6.86,2.48-11.93,6.7-14.06,12.17a18.06,18.06,0,0,0-1.31,6.6,14.71,14.71,0,0,0,.9,5.11,14.09,14.09,0,0,0,3.39,5.2c9.17,9,30.39,8,41.81,19.5a24.2,24.2,0,0,1,3.64,4.71A21.3,21.3,0,0,1,245.57,222.41Z"/><path class="cls-4" d="M322.78,235.63a99.54,99.54,0,0,0-3.25-11.17,103.06,103.06,0,0,0-95.36-68.66h-1.78a103.83,103.83,0,0,0-15.78,1.2"/><line class="cls-2" x1="170.22" y1="327.48" x2="170.22" y2="326.81"/><line class="cls-2" x1="170.22" y1="347.64" x2="170.22" y2="345.59"/><line class="cls-2" x1="170.36" y1="327.62" x2="170.22" y2="327.48"/><path class="cls-3" d="M325.4,258.79a103.15,103.15,0,0,1-128.56,99.83V327.48l10.88-10.87.05-.06V283.39c1.25-17.11,9-24.58,23-27.27s20.83,10.87,39.55-4.81,20-15.86,39.38-11.76c7.12,1.5,10-1.1,10.68-5l2.39,1.09A103.35,103.35,0,0,1,325.4,258.79Z"/><line class="cls-2" x1="207.77" y1="235.63" x2="207.45" y2="235.63"/><polyline class="cls-2" points="207.01 248.86 203.86 254.12 203.07 255.45 200.01 260.58 199.08 262.14 195.2 268.62 194.35 270.05 186.38 283.39 207.77 283.39"/><polyline class="cls-2" points="206.77 235.63 207.45 235.63 207.77 235.63"/><polyline class="cls-2" points="159.34 235.63 159.74 235.63 160.35 235.63"/><line class="cls-2" x1="159.74" y1="235.63" x2="159.34" y2="235.63"/><line class="cls-2" x1="159.97" y1="316.61" x2="159.35" y2="316.61"/><polyline class="cls-2" points="207.01 248.86 203.86 254.12 203.07 255.45 200.01 260.58 199.08 262.14 195.2 268.62 194.35 270.05 186.38 283.39 207.77 283.39"/><path class="cls-2" d="M316.66,217.23s0,0,0-.08a103.13,103.13,0,0,0-92.46-61.35l-1.78,0a45,45,0,0,0-14.41,2.5,45,45,0,0,1,14.41-2.5l1.78,0a103.13,103.13,0,0,1,92.46,61.35s0,0,0,.08l1.84,4.62,1,2.6c-.62-1.74-1.28-3.47-2-5.17l-.15-.38-.15-.35-.36-.84c-.07-.16-.12-.28-.17-.38a.47.47,0,0,0,0-.1"/><line class="cls-2" x1="161.05" y1="318.31" x2="159.35" y2="316.61"/><path class="cls-4" d="M206.61,157a103,103,0,0,0-36.38,190.65h0a102.21,102.21,0,0,0,26.62,11h0a103.09,103.09,0,0,0,125.93-123"/><path class="cls-5" d="M445.77,262.43v36.29a38.68,38.68,0,0,1-13.84,9.46,48.79,48.79,0,0,1-18.79,3.42,41.72,41.72,0,0,1-14.66-2.54A39.36,39.36,0,0,1,386,301.5,34.37,34.37,0,0,1,377,288a53.21,53.21,0,0,1-3.31-19.45,50.11,50.11,0,0,1,3.25-18.5,37,37,0,0,1,8.81-13.47,38.36,38.36,0,0,1,12.83-8,43.57,43.57,0,0,1,15.66-2.78q17.49,0,29.67,9.57l-7.44,10.88a36.13,36.13,0,0,0-21.75-6.86q-11.35,0-18.33,7.45t-7,21.28q0,14.31,6.79,21.93t17.91,7.63q11,0,17.38-6.15v-17h-22V262.43Z"/><path class="cls-5" d="M502.27,225.78a44.32,44.32,0,0,1,15,2.54,41.7,41.7,0,0,1,12.94,7.51,34,34,0,0,1,9.28,13.3,49.74,49.74,0,0,1,3.43,19.09,54.19,54.19,0,0,1-2.25,16,37.45,37.45,0,0,1-6.14,12.29,39.25,39.25,0,0,1-9.17,8.46,39.87,39.87,0,0,1-11,5.14,43.79,43.79,0,0,1-12.06,1.65,42.39,42.39,0,0,1-14.95-2.66,41.45,41.45,0,0,1-13-7.8A35.82,35.82,0,0,1,465,287.55a50.83,50.83,0,0,1-3.49-19.33,51.46,51.46,0,0,1,2.3-15.78,37.12,37.12,0,0,1,6.21-12,38,38,0,0,1,9.16-8.22,39,39,0,0,1,11-4.9A46.63,46.63,0,0,1,502.27,225.78Zm0,13.59q-11,0-18,7.39t-7,21.52q0,14.13,7,22a22.85,22.85,0,0,0,17.8,7.86,23.51,23.51,0,0,0,18.14-7.81q7.16-7.8,7.15-22.1,0-14.07-7-21.46T502.27,239.37Zm-5.79-20.92H489l2.37-15.37h12.41Zm15.13,0h-7.56l7.68-15.37h12.65Z"/><path class="cls-5" d="M619.66,236.66l-44.33,60.52H622V310H557.36V299.9L600.86,240H559.61V227.2h60Z"/></svg>